PathFileType	4	(X/Y/Z)	RBDS014\RBDS014runT45.trc
DataRate	CameraRate	NumFrames	NumMarkers	Units	OrigDataRate	OrigDataStartFrame	OrigNumFrames
150.000000	150.000000	4	32	mm	150.000000	0	4500
Frame#	Time	L.ASIS			L.Heel.Bottom			L.Heel.Lateral			L.Heel.Top			L.Iliac.Crest			L.MT1			L.MT5			L.PSIS			L.Shank.Bottom.Lateral			L.Shank.Bottom.Medial			L.Shank.Top.Lateral			L.Shank.Top.Medial			L.Thigh.Bottom.Lateral			L.Thigh.Bottom.Medial			L.Thigh.Top.Lateral			L.Thigh.Top.Medial			R.ASIS			R.ASY			R.Heel.Bottom			R.Heel.Lateral			R.Heel.Top			R.Iliac.Crest			R.MT5			R.PSIS			R.Shank.Bottom.Lateral			R.Shank.Bottom.Medial			R.Shank.Top.Lateral			R.Shank.Top.Medial			R.Thigh.Bottom.Lateral			R.Thigh.Bottom.Medial			R.Thigh.Top.Lateral			R.Thigh.Top.Medial			
		X1	Y1	Z1	X2	Y2	Z2	X3	Y3	Z3	X4	Y4	Z4	X5	Y5	Z5	X6	Y6	Z6	X7	Y7	Z7	X8	Y8	Z8	X9	Y9	Z9	X10	Y10	Z10	X11	Y11	Z11	X12	Y12	Z12	X13	Y13	Z13	X14	Y14	Z14	X15	Y15	Z15	X16	Y16	Z16	X17	Y17	Z17	X18	Y18	Z18	X19	Y19	Z19	X20	Y20	Z20	X21	Y21	Z21	X22	Y22	Z22	X23	Y23	Z23	X24	Y24	Z24	X25	Y25	Z25	X26	Y26	Z26	X27	Y27	Z27	X28	Y28	Z28	X29	Y29	Z29	X30	Y30	Z30	X31	Y31	Z31	X32	Y32	Z32	

1	0	2240.744088734745	1011.428659899026	942.2886165728903	1683.994149398113	709.2819188081487	1025.771436865443	1697.566999040522	689.3598977825197	978.9820064770504	1728.693481068433	685.3890025138388	1020.702699972994	2195.3392678638	1081.90662358078	892.6130579870219	1632.856069968626	475.771883005257	1020.542431125378	1633.280362136047	538.8249719335681	916.468873047002	2055.403359539257	1049.108724191513	974.0799946079832	1818.543301561242	598.1912352700375	936.9931360901726	1832.521853800847	637.3174316859017	973.9258156083267	1896.162274319579	587.6015033844503	919.565854663804	1910.62512447824	625.2734310700731	955.2358018460542	2165.147956139152	629.4220244338635	874.4690882138004	2103.421125289799	625.0503120955292	912.3483497826724	2148.158045415628	738.1605977677332	865.4409697263218	2092.271141014758	734.887836504268	905.0051029163927	2211.66261910527	1060.690668067326	1182.451797416889	2274.0724911163	85.5679457437892	1091.450660614303	2079.952024200669	33.71953290595039	1047.318619343989	2096.519577850009	54.85680066049327	1089.648965607131	2091.963631733326	84.65044726812035	1047.906198498041	2138.516173417283	1108.049971495941	1203.56652438109	2261.053948133665	35.46267689323534	1161.928509649564	2048.311036376985	1068.468281781798	1068.000368087053	2169.464082772198	182.7470118129869	1130.469160495069	2147.422991347146	203.4235137050374	1088.916808916366	2185.566145583843	262.1110222305814	1158.938869028406	2161.548580352222	279.1844383118599	1114.610237056477	2264.902324448268	667.4426884327717	1227.656401942995	2209.726214482245	643.7132284922848	1186.407369044101	2210.850123260085	762.5320524804699	1239.771870584071	2158.909721848829	740.3567456992538	1200.002409373739	
2	0.006666666666666667	2236.864817622327	1011.767638330911	941.1144910890409	1697.037600023073	700.3882302250354	1017.998313406243	1712.117949679906	679.5135214192597	972.5785978059891	1742.717561497094	678.1630777461518	1014.817647495253	2189.016100554022	1083.803446820004	891.7213394337107	1654.946555623604	465.1264502818583	1020.620317134374	1655.100450362744	524.5003804571317	914.5479801889716	2052.181809368228	1050.366845383743	975.2576817969025	1837.86907032915	591.9708543932395	934.7189682731923	1850.593634068495	631.4867892854419	971.835021475243	1916.246568199591	582.5461222463733	919.1178979901367	1929.445537762839	620.6167789021625	954.7612811623652	2179.43340523682	630.4494368790154	876.0417251632501	2117.656266142744	622.4929589735239	912.8886589622804	2156.712110283859	737.8498332007533	866.985727919527	2100.646906203277	731.2930216075695	905.3767554708578	2209.785040971315	1060.40464148616	1182.150707793134	2244.180733962934	85.18881041222545	1091.793066286986	2049.914943389745	33.68222607666633	1047.511606979367	2066.491582484502	54.88146208917769	1089.871175023112	2062.011515255068	84.63916776754763	1048.108992566993	2136.5344891475	1109.239189300173	1203.199014926441	2230.904076679421	35.20963476906642	1162.340842436309	2045.970704868748	1069.704361753212	1069.101301660758	2142.938579260694	182.0289012819245	1131.127077465193	2121.058106376471	203.5598095710141	1089.90345447716	2161.434930433323	260.5073528581302	1159.721072324035	2137.429941200845	278.5921917656006	1115.826589224536	2253.49810407225	664.6318639682352	1228.71620734069	2196.688044660213	642.0730927213739	1189.091753702827	2202.48350323726	761.4468918693921	1240.711236601221	2149.356899815573	740.5283231825707	1201.882322307157	
3	0.01333333333333333	2233.054953376999	1012.327260309673	939.9622596176987	1709.980349183409	690.7894202305238	1010.368079212645	1726.602132161994	669.0369288319182	966.2715300275927	1756.622169121604	670.3420267052212	1008.973807074045	2182.806504192577	1085.757746902394	890.8820329718403	1677.333693331761	454.0637796600812	1020.800198502764	1677.133948762889	509.7311528814884	912.7586906717971	2049.0250506981	1051.760517203513	976.5092547445538	1857.084040419489	585.5258530232834	932.4844624872585	1868.45969483419	625.4270150603697	969.7680945099924	1936.157161846167	577.4799431404834	918.6551444965029	1948.008215885399	615.9418569460671	954.2876755203555	2193.633047567311	631.9535006762698	877.6169773173601	2131.893638769277	620.4364535469161	913.4886837252101	2165.215221523003	737.9267777652116	868.5368118022076	2109.044265268825	728.0991333793556	905.7987168625328	2207.958328507064	1060.149831322329	1181.866605104766	2214.27124322008	84.87326148634229	1092.132497556879	2019.868580742169	33.81751808432355	1047.710242673742	2036.459379722136	55.05810731175112	1090.103376609925	2032.074296214749	84.78505933325279	1048.332804821375	2134.716803913534	1110.491670472555	1202.880368544396	2200.695941043544	35.00514173908393	1162.717848775044	2043.697027585497	1071.06106617357	1070.264669745472	2116.315220665022	181.4932063393693	1131.737443075236	2094.614290880369	203.8420014279701	1090.822213571365	2137.149971229631	259.1087097775006	1160.431840544803	2113.181199452213	278.1643851187896	1116.94407268043	2241.874898256021	661.9364694894074	1229.643083053559	2183.475071569234	640.6298980906388	1191.581780866687	2193.971436913796	760.4413346146437	1241.546130779257	2139.680627772638	740.8495381622105	1203.622621948315	
4	0.02	2229.382122911168	1013.305856926856	938.8634955956227	1722.699702821646	679.8351867586678	1003.033283816462	1740.926331727175	657.3643748895346	960.1681086152289	1770.268289382381	661.3806460631567	1003.233921016555	2176.832692268545	1087.827174721353	890.1460427369685	1700.274234907073	442.1713632461766	1021.143482137402	1699.556818867529	494.1160839398452	911.2007614996435	2045.992636412039	1053.407329763694	977.8793267201388	1876.073482132986	578.6474914469352	930.3373714563849	1885.910511668804	618.9269026788759	967.7469082749413	1955.723553114778	572.3929744975094	918.1688791149837	1966.055795740418	611.2343785932287	953.8063247163484	2207.679310286345	634.3854737491238	879.1955975797586	2146.149525167334	619.3592314135719	914.2133262354866	2173.628858133237	738.7540454133166	870.090449165928	2117.493955617124	725.6853124363173	906.3182307200572	2206.226260288507	1059.960344390914	1181.619925010665	2184.318905188443	84.66690430297164	1092.462772167094	1989.753532880167	34.26543514626231	1047.921182667711	2006.380567003714	55.51054562188946	1090.354036396479	2002.116337281538	85.22353566849716	1048.59084883486	2133.217595900887	1111.856605515933	1202.650101244566	2170.378730275912	34.87629871162913	1163.031297085392	2041.54968538601	1072.639671036238	1071.534593122908	2089.48067840428	181.3044600245763	1132.248001894875	2067.991149748659	204.4066673411878	1091.604678729837	2112.5509507408	258.096373207193	1161.003213024612	2088.660114399309	278.0511133612791	1117.872450507576	2229.826593873838	659.4567785819769	1230.320560583781	2169.92169914813	639.5611239501125	1193.702552595359	2185.175675414928	759.5853921187215	1242.185672968386	2129.762506531853	741.45661687047	1205.100752777015	
